<svg width="44" height="44" viewBox="0 0 44 44" fill="none" xmlns="http://www.w3.org/2000/svg">
<path d="M22 11V33M27.5 17.4167C27.5 14.8867 25.0378 12.8333 22 12.8333C18.9622 12.8333 16.5 14.8867 16.5 17.4167C16.5 19.9467 18.9622 22 22 22C25.0378 22 27.5 24.0533 27.5 26.5833C27.5 29.1133 25.0378 31.1667 22 31.1667C18.9622 31.1667 16.5 29.1133 16.5 26.5833" stroke="#2563EB" stroke-width="1.5" stroke-linecap="round"/>
<path d="M12.8334 6.11965C15.6191 4.50765 18.7816 3.66134 22.0001 3.66665C32.1256 3.66665 40.3334 11.8745 40.3334 22C40.3334 32.1255 32.1256 40.3333 22.0001 40.3333C11.8746 40.3333 3.66675 32.1255 3.66675 22C3.66675 18.6615 4.55958 15.5283 6.11975 12.8333" stroke="#2563EB" stroke-width="1.5" stroke-linecap="round"/>
</svg>
