<svg width="46" height="46" viewBox="0 0 46 46" fill="none" xmlns="http://www.w3.org/2000/svg">
<path d="M10.9229 40.5833C11.4979 42.6917 13.3083 44.2146 15.5822 44.3781C18.2447 44.5698 22.1822 44.75 27.5614 44.75C32.9093 44.75 36.8301 44.5719 39.4916 44.3812C42.1551 44.1917 44.1916 42.1562 44.3812 39.4917C44.5718 36.8302 44.7499 32.9083 44.7499 27.5625C44.7499 22.1823 44.5697 18.2458 44.3781 15.5833C44.2145 13.3094 42.6906 11.4979 40.5833 10.924" stroke="#2563EB" stroke-width="2" stroke-linecap="round" stroke-linejoin="round"/>
<path d="M1.36875 6.25833C1.55833 3.59375 3.59375 1.55833 6.25833 1.36875C8.91979 1.17708 12.8417 1 18.1875 1C23.5344 1 27.4552 1.17813 30.1167 1.36875C32.7812 1.55833 34.8167 3.59375 35.0062 6.25833C35.1969 8.91979 35.375 12.8417 35.375 18.1875C35.375 23.5333 35.1969 27.4552 35.0062 30.1177C34.8167 32.7812 32.7812 34.8156 30.1167 35.0062C27.4552 35.1969 23.5333 35.375 18.1875 35.375C12.8406 35.375 8.91979 35.1969 6.25833 35.0062C3.59375 34.8167 1.55833 32.7812 1.36875 30.1167C1.17708 27.4562 1 23.5344 1 18.1875C1 12.8406 1.17813 8.91979 1.36875 6.25833Z" stroke="#2563EB" stroke-width="2" stroke-linecap="round" stroke-linejoin="round"/>
<path d="M3.08333 3.08333L33.2917 33.2917M15.5833 1L35.375 20.7917M20.7917 35.375L1 15.5833M35.2365 10.5135C35.3198 12.6438 35.375 15.1917 35.375 18.1875C35.375 23.5344 35.1969 27.4552 35.0062 30.1177C34.8167 32.7812 32.7812 34.8156 30.1167 35.0062C27.4552 35.1969 23.5333 35.375 18.1875 35.375C15.1917 35.375 12.6438 35.3187 10.5135 35.2365C10.418 32.6796 10.3718 30.1211 10.375 27.5625C10.375 22.2156 10.5531 18.2948 10.7437 15.6333C10.9333 12.9687 12.9687 10.9333 15.6333 10.7437C18.2948 10.5521 22.2167 10.375 27.5625 10.375C30.5583 10.375 33.1062 10.4313 35.2365 10.5135Z" stroke="#2563EB" stroke-width="2" stroke-linecap="round" stroke-linejoin="round"/>
</svg>
