<svg width="44" height="44" viewBox="0 0 44 44" fill="none" xmlns="http://www.w3.org/2000/svg">
<path d="M21.9998 3.66669C32.1253 3.66669 40.3332 11.8745 40.3332 22C40.3332 32.1255 32.1253 40.3334 21.9998 40.3334C11.8743 40.3334 3.6665 32.1255 3.6665 22C3.6665 11.8745 11.8743 3.66669 21.9998 3.66669ZM21.9998 7.33335C18.11 7.33335 14.3795 8.87859 11.6289 11.6291C8.8784 14.3797 7.33317 18.1102 7.33317 22C7.33317 25.8899 8.8784 29.6204 11.6289 32.3709C14.3795 35.1215 18.11 36.6667 21.9998 36.6667C25.8897 36.6667 29.6202 35.1215 32.3707 32.3709C35.1213 29.6204 36.6665 25.8899 36.6665 22C36.6665 18.1102 35.1213 14.3797 32.3707 11.6291C29.6202 8.87859 25.8897 7.33335 21.9998 7.33335ZM21.9998 11C22.4489 11.0001 22.8823 11.1649 23.2179 11.4633C23.5534 11.7617 23.7678 12.1729 23.8203 12.6189L23.8332 12.8334V21.241L28.796 26.2039C29.1248 26.5338 29.3157 26.9765 29.3299 27.4421C29.3441 27.9076 29.1806 28.3612 28.8725 28.7105C28.5645 29.0599 28.135 29.2789 27.6713 29.3231C27.2076 29.3673 26.7445 29.2333 26.376 28.9484L26.2037 28.7962L20.7037 23.2962C20.4187 23.011 20.2357 22.6399 20.183 22.2402L20.1665 22V12.8334C20.1665 12.3471 20.3597 11.8808 20.7035 11.537C21.0473 11.1932 21.5136 11 21.9998 11Z" fill="#2563EB"/>
</svg>
