<svg width="44" height="44" viewBox="0 0 44 44" fill="none" xmlns="http://www.w3.org/2000/svg">
<g clip-path="url(#clip0_18_2148)">
<path d="M32.4378 22C32.4325 20.3565 32.2564 18.7181 31.9122 17.1111H36.3122C36.0868 16.4403 35.8131 15.7868 35.4933 15.1555H31.3989C30.6296 12.5839 29.4358 10.159 27.8667 7.98109C26.8644 7.55967 25.8194 7.24822 24.75 7.0522C26.9 9.36057 28.5223 12.1089 29.5045 15.1066H22.9167V6.84442H21.0833V15.1189H14.4956C15.4797 12.1157 17.1063 9.36296 19.2622 7.0522C18.1974 7.24513 17.1566 7.55247 16.1578 7.96887C14.5825 10.1376 13.3804 12.5542 12.6011 15.1189H8.48223C8.15664 15.7616 7.87885 16.4275 7.65112 17.1111H12.0878C11.7437 18.7181 11.5675 20.3565 11.5622 22C11.5659 23.7976 11.7709 25.5891 12.1733 27.3411H7.84668C8.09814 28.0268 8.40046 28.6927 8.75112 29.3333H12.6989C13.4468 31.675 14.5561 33.8854 15.9867 35.8844C17.0109 36.3235 18.0808 36.6474 19.1767 36.85C17.1816 34.6743 15.6475 32.1175 14.6667 29.3333H21.0956V37.0822H22.9289V29.3333H29.3333C28.3489 32.1185 26.8105 34.6754 24.8111 36.85C25.9121 36.6404 26.9862 36.3083 28.0133 35.86C29.4417 33.8684 30.5509 31.6664 31.3011 29.3333H35.2122C35.5613 28.7045 35.8635 28.0509 36.1167 27.3778H31.7778C32.1994 25.6157 32.4208 23.8117 32.4378 22ZM21.0833 27.3411H14.0678C13.2078 23.9773 13.1701 20.4559 13.9578 17.0744H21.0833V27.3411ZM29.9322 27.3411H22.9167V17.1111H30.0422C30.3934 18.7167 30.5656 20.3564 30.5556 22C30.567 23.7991 30.3576 25.5929 29.9322 27.3411Z" fill="#2563EB"/>
<path d="M21.9999 2.44446C18.1322 2.44446 14.3513 3.59137 11.1354 5.74016C7.91952 7.88896 5.41304 10.9431 3.93292 14.5164C2.45281 18.0897 2.06554 22.0217 2.8201 25.8151C3.57465 29.6085 5.43714 33.093 8.17204 35.8279C10.9069 38.5628 14.3914 40.4253 18.1848 41.1798C21.9782 41.9344 25.9102 41.5471 29.4835 40.067C33.0568 38.5869 36.111 36.0804 38.2598 32.8645C40.4085 29.6486 41.5555 25.8677 41.5555 22C41.5555 16.8136 39.4951 11.8395 35.8278 8.17215C32.1604 4.50477 27.1864 2.44446 21.9999 2.44446ZM21.9999 39.1111C18.6156 39.1111 15.3074 38.1076 12.4935 36.2274C9.67957 34.3472 7.48639 31.6748 6.1913 28.5482C4.8962 25.4215 4.55734 21.981 5.21757 18.6618C5.87781 15.3426 7.50749 12.2937 9.90052 9.90063C12.2935 7.5076 15.3425 5.87792 18.6617 5.21769C21.9809 4.55745 25.4214 4.89631 28.548 6.19141C31.6747 7.48651 34.3471 9.67968 36.2273 12.4936C38.1075 15.3075 39.111 18.6158 39.111 22C39.111 26.5382 37.3082 30.8904 34.0993 34.0994C30.8903 37.3084 26.5381 39.1111 21.9999 39.1111Z" fill="#2563EB"/>
</g>
<defs>
<clipPath id="clip0_18_2148">
<rect width="44" height="44" fill="white"/>
</clipPath>
</defs>
</svg>
